# xmcd
#
# Track frame offsets:
#	183
#	14295
#	39058
#	53695
#	68670
#	79883
#	91683
#	107833
#	125045
#	142120
#
# Disc length: 2030
#
# Revision: 4
# Processed by: cddbd v1.5.1PL0 Copyright (c) Steve Scherf et al.
# Submitted via: Grip 2.91
# Normalized: r3:TRMNUM
#
DISCID=7b07ec0a
DTITLE=Multi-artist - Cuba - La isla del tesoro
DYEAR=1900
DGENRE=
TTITLE0=Rumberos de ayer - Benny More
TTITLE1=Yo no quiero que seas celosa - Orquesta Reve
TTITLE2=Guajira Guantanamera - Abelardo Barroso
TTITLE3=Mami me gusto - Arsenio Rodriguez
TTITLE4=El panquelero - Paulina Alvarez
TTITLE5=Tu veras - Trio Matamoros
TTITLE6=Bruca Manigua - Arsenio Rodriguez
TTITLE7=Echale Salsita - Celeste Mendonza
TTITLE8=Francisco Guayabal - Pio Leyva
TTITLE9=Donde estabas anoche - Septeto Nacional
EXTD=
EXTT0=
EXTT1=
EXTT2=
EXTT3=
EXTT4=
EXTT5=
EXTT6=
EXTT7=
EXTT8=
EXTT9=
PLAYORDER=
